<svg xmlns="http://www.w3.org/2000/svg" fill="none" viewBox="0 0 52 50">
  <defs/>
  <path fill="#FFBB01" d="M49.9949 20.9626l-8.4865 8.2417-4.8433-4.7121 3.6604-3.5296c.2914-.3305.2717-.8228-.0452-1.1305-.3164-.3073-.8233-.3264-1.1636-.0435l-3.6688 3.5215-2.4176-2.356 8.4781-8.2418c.3324-.3247.3324-.8491 0-1.1739-.3344-.3228-.8744-.3228-1.2088 0l-9.0951 8.8331c-.1624.1561-.2537.3691-.2537.5911 0 .2219.0913.4345.2537.591l1.2172 1.1736-1.2172 1.1825c-1.4391-1.3988-3.6927-1.6215-5.3921-.5329l-.6684-.6496c-.8032-.778-1.8915-1.215-3.0263-1.2154-.5362 0-1.0682.0959-1.5688.2833l-1.4658-1.4236.6086-.5829c.1624-.1565.2536-.3691.2536-.591 0-.222-.0912-.435-.2536-.5911l-8.512-8.2417c-.3362-.3244-.8795-.3223-1.21307.0041-.33401.3264-.33192.8536.00419 1.178l7.87788 7.6507-.6086.5825-4.2861 4.121-3.02587-2.947c-.16115-.1578-.38007-.2464-.60861-.2464-.22853 0-.44786.0886-.6086.2464-.33276.3247-.33276.8491 0 1.1739l3.03418 2.9471-1.2172 1.1736-1.14015 1.2239-7.87791-7.684c-.16073-.1577-.38006-.2463-.6086-.2463-.228539 0-.447451.0886-.608601.2463-.3323445.3248-.3323445.8492 0 1.174l8.486511 8.2417c.16199.1557.3809.2427.6086.2415.22812.0012.44704-.0858.60902-.2415l1.18293-1.174 1.2084 1.174c-1.6731 1.6256-1.6731 4.2601 0 5.8857L14 36.6302c.1607.1577.38.2463.6086.2463.2285 0 .4474-.0886.6086-.2463.3323-.3248.3323-.8492 0-1.174l-1.586-1.5398c-.4843-.4687-.7563-1.1053-.7563-1.7691 0-.6642.272-1.3008.7563-1.769l.6002-.583 6.0689-5.8942c1.0188-.9386 2.6161-.9386 3.6349 0l5.4518 5.2947c.2914.3304.2717.8227-.0447 1.1304-.3169.3073-.8238.3264-1.1637.0435l-3.9521-3.8377c-.3382-.3264-.8853-.3248-1.2214.0041-.3361.3288-.3344.8597.0042 1.1861l3.9517 3.8381c.735.7191 1.8442.9362 2.8082.5492.9644-.387 1.5922-1.3012 1.5897-2.3142-.0008-.6621-.272-1.2971-.7547-1.765l-3.5314-3.43c.9844-.4333 2.1414-.2423 2.9228.4829l7.2781 7.0682c.4793.4691.7476 1.104.7459 1.765.0017.661-.2666 1.2955-.7459 1.7646l-2.426 2.3561-2.4859 2.406-1.7576 1.715-4.8516 4.7117c-.3344.3228-.8744.3228-1.2088 0-.3324-.3244-.3324-.8488 0-1.1735l5.495-5.3117c.2444-.2033.3511-.5228.2758-.8268-.0754-.3041-.3198-.5415-.6329-.6147-.3135-.0731-.6421.0301-.8518.2679l-5.4606 5.2946c-.3399.2829-.8468.2638-1.1637-.0435-.3164-.3077-.3361-.8-.0448-1.1304l5.4519-5.2946c.1624-.1561.2537-.3691.2537-.5911 0-.2219-.0913-.4345-.2537-.591-.3344-.3228-.8744-.3228-1.2088 0l-5.4607 5.3031c-.334.3228-.874.3228-1.2084 0-.1624-.1565-.2536-.3691-.2536-.591 0-.222.0912-.435.2536-.5911l5.4519-5.295c.1624-.1561.2536-.3691.2536-.591 0-.222-.0912-.4346-.2536-.5911-.3345-.3228-.8744-.3228-1.2088 0l-5.4603 5.3032c-.3361.3239-.8794.3223-1.213-.0041-.334-.3264-.3319-.8541.0042-1.178l6.592-6.3938c.3361-.3264.3361-.8557 0-1.1821-.3361-.3264-.8811-.3264-1.2172 0l-6.6263 6.4186c-1.0029.9752-1.0029 2.5548 0 3.53.4428.439 1.0393.7008 1.6713.7325.0766 1.2674 1.1205 2.2776 2.426 2.3475.0724 1.2711 1.1176 2.2857 2.4261 2.3561.0247.626.2909 1.2207.7459 1.665.7726.7487 1.948.9426 2.9316.4829l.7028.691c.722.7016 1.8036.922 2.7555.561.9514-.361 1.5926-1.2345 1.6336-2.226.6459-.0191 1.2599-.2784 1.7145-.7244.4454-.4341.7107-1.0117.7459-1.6235 1.3089-.0699 2.3536-1.0849 2.426-2.3561 1.0209-.0394 1.9204-.6625 2.2921-1.5865.3721-.9244.1453-1.9744-.5776-2.6756l-.6086-.5829 1.2172-1.1821c.8011-.78 1.2511-1.8369 1.2515-2.9389-.0201-.824-.2917-1.6236-.7802-2.2976l1.2946-1.2568.6086.591c.3345.3228.8744.3228 1.2089 0l9.0691-8.8332c.3324-.3243.3324-.8491 0-1.1735-.1607-.1577-.38-.2463-.6086-.2463-.2285 0-.4474.0886-.6086.2463zM12.414 26.8482l5.4607-5.2946 1.2084 1.1736-5.4519 5.3031-1.2172-1.1821zm16.973 21.1956c-.3344.3227-.8744.3227-1.2084 0l-.6086-.5911 1.2172-1.1739.5998.5829c.1624.1561.2537.3691.2537.591 0 .222-.0913.435-.2537.5911zm2.4261-2.3561c-.3345.3228-.8744.3228-1.2089 0l-.5654-.591.6086-.5911.5998-.5829.609.5829c.162.1565.2532.3691.2532.5911 0 .2219-.0912.4349-.2532.591h-.0431zm2.426-2.356c-.3344.3227-.8744.3227-1.2088 0l-.6086-.5911 1.2088-1.1735.6086.591c.3323.3248.3323.8492 0 1.1736zm2.426-2.3557c-.1611.1573-.38.2459-.6086.2459-.2285 0-.4478-.0886-.6086-.2459l-.6002-.5914 1.1917-1.1736.6086.5911c.3369.3199.3449.8447.0171 1.1739zm1.2085-10.5977l-5.4519-5.2951 1.2088-1.1735 5.4607 5.2946-1.2176 1.174z"/>
  <path fill="#FFBB01" d="M16.3233 13.3201h18.8591c.4734 0 .8572-.3728.8572-.8325V.832504C36.0396.372757 35.6558 0 35.1824 0H16.3233c-.4734 0-.8573.372757-.8573.832504V12.4876c0 .4597.3839.8325.8573.8325zm.8572-3.33005c.9468 0 1.7145.74555 1.7145 1.66505h-1.7145V9.99005zm17.1447 1.66505h-1.7145c0-.9195.7676-1.66505 1.7145-1.66505v1.66505zm0-8.32508c-.9469 0-1.7145-.74552-1.7145-1.66501h1.7145v1.66501zm0 1.665v3.33002c-1.8941 0-3.429 1.49103-3.429 3.33006H20.6094c0-1.83903-1.5353-3.33006-3.4289-3.33006V4.99502c1.8936 0 3.4289-1.49102 3.4289-3.33001h10.2868c0 1.83899 1.5349 3.33001 3.429 3.33001zM17.1805 1.66501h1.7145c0 .91949-.7677 1.66501-1.7145 1.66501V1.66501z"/>
  <path fill="#FFBB01" d="M25.7526 9.99005c1.8936 0 3.4289-1.49103 3.4289-3.33002 0-1.83899-1.5353-3.33001-3.4289-3.33001-1.894 0-3.4289 1.49102-3.4289 3.33001 0 1.83899 1.5349 3.33002 3.4289 3.33002zm0-4.99502c.9468 0 1.7144.74551 1.7144 1.665 0 .9195-.7676 1.66501-1.7144 1.66501s-1.7145-.74551-1.7145-1.66501c0-.91949.7677-1.665 1.7145-1.665zM32.6105 6.66002c0 .45975-.3839.8325-.8573.8325-.4734 0-.8572-.37275-.8572-.8325s.3838-.83251.8572-.83251.8573.37276.8573.83251zM20.6092 6.66002c0 .45975-.3838.8325-.8572.8325s-.8572-.37275-.8572-.8325.3838-.83251.8572-.83251.8572.37276.8572.83251zM51.324 5.36978L47.8951.374755c-.1595-.230483-.4261-.36828527-.7116-.36828527-.2855 0-.5525.13780227-.7116.36828527L43.043 5.36978c-.0938.13536-.1444.29471-.1457.45771v3.33002c0 .45975.3839.8325.8573.8325.4734 0 .8572-.37275.8572-.8325V6.07708l2.5717-3.74627 2.5717 3.74627V14.985c0 .4598.3838.8325.8572.8325s.8573-.3727.8573-.8325V5.82749c-.0013-.163-.0519-.32235-.1457-.45771z"/>
  <path fill="#FFBB01" d="M48.0408 11.655V6.66002c0-.45975-.3838-.83251-.8572-.83251s-.8573.37276-.8573.83251V11.655c0 .4598.3839.8325.8573.8325.4734 0 .8572-.3727.8572-.8325zM.892949 7.49256h.857231v9.99004c0 .4598.38383.8325.85723.8325.47341 0 .85723-.3727.85723-.8325V6.66006c0-.45975-.38382-.83251-.85723-.83251h-.05148l2.62318-3.56293 2.62318 3.56293H7.7508c-.4734 0-.85723.37276-.85723.83251v1.66501c0 .45974.38383.8325.85723.8325.47341 0 .85724-.37276.85724-.8325v-.83251h.85723c.3202-.00162.61283-.17601.75883-.45284.1461-.27641.121-.60933-.0644-.86258L5.87352.349612C5.71195.133356 5.45411.00531006 5.17911.00531006c-.275 0-.53326.12804594-.69441.34430194L.198541 6.17714c-.1858452.25325-.2105409.58617-.06446.86258.146081.27683.438662.45122.758868.45284z"/>
  <path fill="#FFBB01" d="M5.17906 11.6551v2.4975c0 .4597.38383.8325.85723.8325.47341 0 .85724-.3728.85724-.8325v-2.4975c0-.4598-.38383-.8325-.85724-.8325-.4734 0-.85723.3727-.85723.8325z"/>
</svg>
