<svg xmlns="http://www.w3.org/2000/svg" fill="none" viewBox="0 0 52 50">
  <defs/>
  <path fill="#FFBB01" d="M43.8961 36.7029l-3.0372 2.9496-1.819-1.7747c-.3364-.3267-.8818-.3267-1.2182 0-.3364.3267-.3364.8564 0 1.1831l2.4281 2.3581c.1609.1578.3804.2465.6091.2465.2287 0 .4478-.0887.6091-.2465l3.6807-3.5412c.2447-.2034.3515-.5232.2761-.8275-.0754-.3047-.3201-.5423-.6334-.6156-.3134-.0732-.6427.0306-.8526.2682h-.0427z"/>
  <path fill="#FFBB01" d="M45.1487 30.9123v-2.5831c0-.4601-.3842-.8332-.858-.8332h-2.5738v-.8332c0-1.3804 1.1524-2.4996 2.5738-2.4996.4738 0 .858-.3731.858-.8332 0-.4602-.3842-.8332-.858-.8332-2.369 0-4.2898 1.8653-4.2898 4.166v.8332h-2.5738c-.4739 0-.858.3731-.858.8332v2.5831c-4.4 1.9585-6.8009 6.6291-5.769 11.2211 1.0322 4.5924 5.2185 7.8667 10.0588 7.8667 4.8399 0 9.0266-3.2743 10.0588-7.8667 1.0319-4.592-1.369-9.2626-5.769-11.2211zm-3.4318 17.414v-.8332c0-.4601-.3842-.8332-.858-.8332s-.858.3731-.858.8332v.8332c-4.0912-.3808-7.3295-3.5257-7.7216-7.4989h.8579c.4739 0 .858-.3731.858-.8332 0-.4601-.3841-.8332-.858-.8332h-.8579c.3234-3.1119 2.4138-5.7857 5.4138-6.924.3301-.1237.5479-.4313.5492-.7751v-2.2994H43.39v2.2994c.0009.3438.2187.6514.5488.7751 3.0335 1.1135 5.1612 3.7921 5.4997 6.924h-.858c-.4738 0-.8579.3731-.8579.8332 0 .4601.3841.8332.8579.8332h.858c-.3921 3.9732-3.6304 7.1181-7.7216 7.4989z"/>
  <path fill="#FFBB01" d="M28.1695 43.327H4.82446c-1.42142 0-2.57388-1.1192-2.57388-2.4996V14.1646H46.8646v15.3811c0 .4601.3841.8332.8579.8332s.858-.3731.858-.8332V8.33212c0-2.30069-1.9208-4.16606-4.2898-4.16606h-1.716v-.83321c0-.46014-.3841-.83321-.8579-.83321s-.858.37307-.858.83321V6.6657c0 .92028-.7683 1.66642-1.7159 1.66642S37.427 7.58598 37.427 6.6657V3.33285c0-.92028.7683-1.66643 1.7159-1.66643.4738 0 .858-.37307.858-.833208C40.0009.373074 39.6167 0 39.1429 0c-1.8952 0-3.4318 1.4923-3.4318 3.33285v.83321h-7.7217v-.83321c0-.46014-.3841-.83321-.858-.83321-.4738 0-.8579.37307-.8579.83321V6.6657c0 .92028-.7683 1.66642-1.7159 1.66642s-1.716-.74614-1.716-1.66642V3.33285c0-.92028.7684-1.66643 1.716-1.66643.4738 0 .8579-.37307.8579-.833208C25.4155.373074 25.0314 0 24.5576 0c-1.8953 0-3.4319 1.4923-3.4319 3.33285v.83321h-7.7216v-.83321c0-.46014-.3842-.83321-.858-.83321s-.858.37307-.858.83321V6.6657c0 .92028-.7683 1.66642-1.71587 1.66642-.94762 0-1.71593-.74614-1.71593-1.66642V3.33285c0-.92028.76831-1.66643 1.71593-1.66643.47377 0 .85797-.37307.85797-.833208C10.8302.373074 10.446 0 9.97223 0 8.077 0 6.54038 1.4923 6.54038 3.33285v.83321H4.82446c-2.36903 0-4.289807 1.86537-4.289807 4.16606V40.8274c0 2.3007 1.920777 4.1661 4.289807 4.1661H24.5576c4.5043 0 4.5043 0 4.5043-.8332.0012-.2214-.0884-.4346-.2489-.5916-.1701-.1644-.4034-.2522-.6435-.2417zM4.82446 5.83249h1.71592v.83321c0 1.84055 1.53662 3.33285 3.43185 3.33285 1.89517 0 3.43187-1.4923 3.43187-3.33285v-.83321h7.7216v.83321c0 1.84055 1.5366 3.33285 3.4319 3.33285 1.8952 0 3.4318-1.4923 3.4318-3.33285v-.83321h7.7217v.83321c0 1.84055 1.5366 3.33285 3.4318 3.33285s3.4318-1.4923 3.4318-3.33285v-.83321h1.716c1.4214 0 2.5739 1.11922 2.5739 2.49963v4.16608H2.25058V8.33212c0-1.38041 1.15246-2.49963 2.57388-2.49963z"/>
  <path fill="#FFBB01" d="M15.978 17.4975c0-.4602-.3841-.8333-.8579-.8333H8.25638c-.4738 0-.85796.3731-.85796.8333v6.6657c0 .4601.38416.8332.85796.8332h6.86372c.4738 0 .8579-.3731.8579-.8332v-6.6657zm-1.7159 5.8324H9.11434v-4.9992h5.14776v4.9992zM15.1201 29.9956c.4738 0 .8579-.373.8579-.8332 0-.4601-.3841-.8332-.8579-.8332H8.25638c-.4738 0-.85796.3731-.85796.8332v6.6657c0 .4602.38416.8332.85796.8332h6.86372c.4738 0 .8579-.373.8579-.8332v-3.3328c0-.4602-.3841-.8332-.8579-.8332s-.858.373-.858.8332v2.4996H9.11434v-4.9993h6.00576zM20.2679 28.3292c-.4738 0-.858.3731-.858.8332v6.6657c0 .4602.3842.8332.858.8332h6.8637c.4738 0 .8579-.373.8579-.8332v-6.6657c0-.4601-.3841-.8332-.8579-.8332h-6.8637zm6.0057 6.6657h-5.1477v-4.9993h5.1477v4.9993zM39.143 23.3299c.4738 0 .8579-.373.8579-.8332v-4.9992c0-.4602-.3841-.8333-.8579-.8333h-6.8637c-.4738 0-.858.3731-.858.8333v6.6657c0 .4601.3842.8332.858.8332s.858-.3731.858-.8332v-5.8325h5.1477v4.166c0 .4602.3842.8332.858.8332zM27.7407 16.9059c-.1613-.1578-.3804-.2465-.6091-.2465-.2287 0-.4483.0887-.6091.2465l-2.8228 2.7494-2.8227-2.7494c-.3364-.3267-.8818-.3267-1.2182 0-.3364.3267-.3364.8564 0 1.1831l2.8311 2.7413-2.8311 2.7413c-.1626.1562-.2539.3694-.2539.5916 0 .2221.0913.4353.2539.5915.1609.1579.3804.2465.6091.2465.2287 0 .4478-.0886.6091-.2465l2.8227-2.7494 2.8228 2.7494c.1608.1579.3804.2465.6091.2465.2287 0 .4478-.0886.6091-.2465.1626-.1562.2539-.3694.2539-.5915 0-.2222-.0913-.4354-.2539-.5916l-2.8311-2.7413 2.8311-2.7413c.1626-.1562.2539-.3694.2539-.5915 0-.2222-.0913-.4354-.2539-.5916z"/>
</svg>
