<svg xmlns="http://www.w3.org/2000/svg" fill="none" viewBox="0 0 18 18">
  <defs/>
  <path fill="#fff" d="M8.79095 0C4.0609 0 .184692 3.92288.184692 8.66873.184692 13.387 4.02557 17.27 8.79095 17.27c4.75945 0 8.60625-3.8772 8.60625-8.60127C17.3972 3.92288 13.521 0 8.79095 0zm1.51285 16.1063c-.48408.1012-.99846.1518-1.51285.1518-.51438 0-1.02877-.0506-1.51282-.1518v-2.3679c0-.5667.15129-.769.353-1.0423.10269-.1178.16467-.2235.62522-.9207l-.77651-.1215c-1.997-.2935-2.78361-1.3358-3.09629-2.14533-.40341-1.08267-.19159-2.43874.53461-3.29874.11097-.13163.20171-.3543.12108-.58699-.15141-.4655-.13119-1.20415-.03033-1.48756.53473.07668 1.08458.46102 1.54315.73877.2113.12373.32213.09105.42351.10119.36849-.07694.94328-.26312 1.8255-.26312.54458 0 1.11951.0809 1.68433.24283.101-.00237.2633.0838.5446-.0809.4793-.29303 1.0105-.6642 1.543-.73877.1009.28341.1211 1.02206-.0302 1.48756-.0808.23269.01.45536.1211.58699.7261.86013.9379 2.21607.5345 3.29874-.3127.80953-1.0993 1.85183-3.0963 2.14533l-.77654.1215c.47604.7207.52621.8071.62535.9207.20159.2733.35289.4756.35289 1.0423v2.3679zm1.0085-.2934v-2.0745c0-.5768-.1211-.9613-.2825-1.2447 1.5331-.4148 2.6224-1.3256 3.1064-2.63096.5144-1.3761.2825-3.01545-.5749-4.14885.1514-.6779.1514-1.76071-.2117-2.26666-.1614-.22254-.3833-.34403-.6656-.34403h-.0101c-.7821.04243-1.3976.43758-2.0575.83984-.6051-.16193-1.22032-.24283-1.83556-.24283-.62522 0-1.25057.09104-1.80514.24283-.69469-.42031-1.30428-.79846-2.10797-.83984-.25213 0-.47406.12149-.63546.34403-.36297.50595-.36297 1.58876-.21169 2.26666-.85739 1.1334-1.08931 2.78276-.57492 4.14885.48405 1.30536 1.57336 2.21616 3.1064 2.63096-.12515.2197-.22417.5031-.26317.8866-.30965.1071-.5782.1421-.82798.0684-.26343-.0781-.46868-.2546-.64702-.5555-.40053-.6751-1.08274-1.2263-1.8595-1.1546l.08864 1.008c.35969-.0331.71767.3487.90362.6635.30676.5183.72003.8583 1.22864 1.009.37755.1116.72266.109 1.0943.0294v1.3644c-2.9349-1.0322-5.07635-3.8453-5.07635-7.14417 0-4.1893 3.42236-7.65682 7.59771-7.65682s7.59775 3.46752 7.59775 7.65682c0 3.29887-2.1415 6.11197-5.0764 7.14417z"/>
</svg>
