<svg xmlns="http://www.w3.org/2000/svg" fill="none" viewBox="0 0 19 18">
  <defs/>
  <path fill="#fff" d="M3.44126 17.4615H15.611c1.3903 0 2.5214-1.1348 2.5214-2.5298V2.72131c0-1.39494-1.1311-2.529782-2.5214-2.529782H3.44126C2.05096.191528.919891 1.32637.919891 2.72131V14.9317c0 1.395 1.131069 2.5298 2.521369 2.5298zM1.92844 2.72131c0-.83693.67867-1.51787 1.51282-1.51787H15.611c.8342 0 1.5129.68094 1.5129 1.51787V14.9317c0 .837-.6787 1.5179-1.5129 1.5179H3.44126c-.83415 0-1.51282-.6809-1.51282-1.5179V2.72131z"/>
  <path fill="#fff" d="M9.52615 13.3802c2.50245 0 4.53845-2.0428 4.53845-4.55363 0-2.51082-2.036-4.55362-4.53845-4.55362S4.9877 6.31575 4.9877 8.82657c0 2.51083 2.036 4.55363 4.53845 4.55363zm0-8.09534c1.94645 0 3.52995 1.58876 3.52995 3.54171 0 1.95293-1.5835 3.54173-3.52995 3.54173-1.94644 0-3.5299-1.5888-3.5299-3.54173 0-1.95295 1.58346-3.54171 3.5299-3.54171zM14.2823 5.0392c.8242 0 1.4948-.67281 1.4948-1.49976 0-.82696-.6706-1.49977-1.4948-1.49977-.8242 0-1.4947.67281-1.4947 1.49977 0 .82695.6705 1.49976 1.4947 1.49976zm0-1.99968c.2747 0 .4983.22431.4983.49992 0 .27561-.2236.49992-.4983.49992-.2746 0-.4982-.22431-.4982-.49992 0-.27561.2236-.49992.4982-.49992z"/>
</svg>
