<svg xmlns="http://www.w3.org/2000/svg" fill="none" viewBox="0 0 52 50">
  <defs/>
  <path fill="#FFBB01" d="M51.4155 11.8519c-.1772-.6399-.6096-1.1855-1.2011-1.5162-.5919-.3324-1.2957-.42231-1.9559-.2502-.6594.1725-1.2211.5919-1.5617 1.1664l-.429.7249c-.4076-.2274-.9283-.0935-1.1667.3003l-2.1792 3.6074-.7465-.4166c-.1977-.1111-.4331-.1412-.6535-.0834-.2207.0581-.4084.1989-.5219.3917-.2325.3983-.0909.9044.3175 1.1331l.7465.4166-7.2925 12.2729-1.8017 4.6745-.858 1.5577c-.5023.8487-.4486 1.9036.1374 2.6998l-1.9303 2.2994-.5404-1.3161c-.2438-.5867-.8081-.9886-1.457-1.0379-.6493-.0496-1.2714.262-1.6062.8043l-.3087.5082-.2916-3.3328c-.067-.7884-.6958-1.4223-1.5043-1.5175-.8089-.0948-1.5747.3759-1.8332 1.1261l-2.1105 6.1489c-.1474.4349.0939.9036.5404 1.05.0838.0379.1739.0606.2661.0663.3686.0013.697-.227.8152-.5663l2.1017-6.1488.3003 3.3824c.062.7217.5961 1.3218 1.3225 1.4853.7264.1636 1.478-.1473 1.8605-.7685l.3175-.5085.532 1.3083c.2258.5513.7365.9447 1.341 1.0322.6045.0874 1.211-.144 1.5931-.6074l1.9991-2.4577c.2212.0561.449.0842.6778.0834.9195.0069 1.7732-.4634 2.2391-1.2335l.8579-1.3914L40.7 33.0816l7.3696-12.423.7465.4166c.199.1107.3439.2934.403.5086.0595.2136.0285.4414-.0855.633l-3.4317 5.7742c-.1295.1895-.1735.4223-.1215.6444.0519.2217.1948.4133.3959.5301.1977.1115.4331.1416.6535.0838.2207-.0582.4084-.1989.5219-.3918l3.4318-5.7742c.3422-.5748.4348-1.2583.2572-1.8994-.1776-.6404-.6095-1.186-1.201-1.5167l-.7465-.4166 2.1448-3.6078c.2342-.3958.0964-.9011-.3087-1.133l.4289-.725c.3515-.5838.4445-1.2811.2573-1.9329zm-3.2345.2332c.1135-.1929.3021-.3341.5237-.3914.2203-.0529.4532-.0232.6518.0834.199.1102.3439.2933.4034.5081.0545.214.0239.4402-.0859.633l-.4289.725-1.4931-.8332.429-.7249zm-11.6936 23.263l-.429-.2417-1.2697-.7168 1.2182-3.166 2.7024 1.5163-2.2219 2.6082zm-2.5738 2.4076c-.3624-.2453-.4738-.7172-.2572-1.0915l.4289-.7246 1.4926.8332-.4289.7165c-.1203.2026-.3222.3466-.5572.3974-.235.0505-.4809.0033-.6782-.131zm5.7739-6.3819l-2.9684-1.6664 6.8635-11.5483 2.9684 1.6663-6.8635 11.5484zM47.409 18.384l-2.9685-1.6663 1.7159-2.8829 2.9684 1.6664-1.7158 2.8828zM13.5678 37.3436l-3.0367 2.9414-1.8189-1.7664c-.33472-.3231-.87512-.3231-1.20983 0-.16254.1566-.25387.3694-.25387.5915 0 .2221.09133.4353.25387.5915l1.81893 1.7665c.32173.31.7566.4837 1.2098.4833.4558.0024.8944-.1713 1.2182-.4833l3.0284-2.9495c.2915-.3308.2718-.8235-.0449-1.131-.3171-.308-.8244-.3271-1.165-.044z"/>
  <path fill="#FFBB01" d="M3.46152 39.585c0 3.9116 3.26503 7.0821 7.29248 7.0821 4.0275 0 7.2925-3.1705 7.2925-7.0821 0-.4602-.3842-.8332-.8579-.8332-.4738 0-.858.373-.858.8332 0 2.991-2.4967 5.4157-5.5766 5.4157-3.07986 0-5.5766-2.4247-5.5766-5.4157 0-2.9911 2.49674-5.4158 5.5766-5.4158 1.2073-.0032 2.3824.3771 3.3459 1.0834.3791.2762.917.2014 1.201-.1668.2845-.3682.2078-.8901-.1713-1.1664-2.2098-1.6094-5.16651-1.8682-7.63686-.6688-2.47076 1.1997-4.03122 3.6521-4.03122 6.3344zM30.9155 6.67383c.4738 0 .8579-.37266.8579-.83319 0-.46013-.3841-.83319-.8579-.83319H8.60904c-.4738 0-.85794.37306-.85794.83319V9.1734c0 .46054.38414.8332.85794.8332H30.9155c.4738 0 .8579-.37266.8579-.8332 0-.46012-.3841-.83319-.8579-.83319H9.46698V6.67383H30.9155zM11.1829 11.673c-.4738 0-.8579.3731-.8579.8332 0 .4606.3841.8332.8579.8332h17.1588c.4738 0 .858-.3726.858-.8332 0-.4601-.3842-.8332-.858-.8332H11.1829zM33.4894 17.5053H14.6147c-.4737 0-.8579.3731-.8579.8332 0 .4605.3842.8332.8579.8332h18.8747c.4738 0 .858-.3727.858-.8332 0-.4601-.3842-.8332-.858-.8332zM24.91 23.3377c0-.4601-.3842-.8332-.858-.8332H6.89322c-.4738 0-.85794.3731-.85794.8332 0 .4605.38414.8332.85794.8332H24.052c.4738 0 .858-.3727.858-.8332zM33.4893 22.5045h-6.0055c-.4738 0-.858.3731-.858.8332 0 .4605.3842.8332.858.8332h6.0055c.4738 0 .858-.3727.858-.8332 0-.4601-.3842-.8332-.858-.8332zM15.4726 28.3368c.4738 0 .858-.3726.858-.8331 0-.4602-.3842-.8332-.858-.8332H6.89322c-.4738 0-.85794.373-.85794.8332 0 .4605.38414.8331.85794.8331h8.57938zM18.9043 28.3368h6.0056c.4738 0 .8579-.3726.8579-.8331 0-.4602-.3841-.8332-.8579-.8332h-6.0056c-.4738 0-.8579.373-.8579.8332 0 .4605.3841.8331.8579.8331z"/>
  <path fill="#FFBB01" d="M38.637 38.3352c-.4738 0-.858.373-.858.8332v8.3319c0 .4605-.3841.8332-.8579.8332H2.60351c-.47379 0-.85794-.3727-.85794-.8332V2.50794c0-.46013.38415-.8332.85794-.8332H36.9211c.4738 0 .8579.37307.8579.8332V18.1555c0 .4601.3842.8332.858.8332s.8579-.3731.8579-.8332V2.50794c0-1.38038-1.1524-2.49957818-2.5738-2.49957818H2.60351C1.18213.00836182.0296936 1.12756.0296936 2.50794V47.5003c0 1.3808 1.1524364 2.4995 2.5738164 2.4995H36.9211c1.4214 0 2.5738-1.1187 2.5738-2.4995v-8.3319c0-.4602-.3841-.8332-.8579-.8332z"/>
</svg>
