<svg xmlns="http://www.w3.org/2000/svg" fill="none" viewBox="0 0 52 50">
  <defs/>
  <path fill="#FFBB01" d="M49.7929 35.6352v-2.3h.858c.2367.0017.4633-.0919.6263-.2583.1458-.1583.2283-.3625.2316-.5749L49.973 4.17195C49.8268 1.87892 47.8687.0916138 45.5029.0916138c-2.3657 0-4.3238 1.7873062-4.47 4.0803362L39.497 32.502c-.0071.227.0759.4475.2317.6168.1701.1509.3959.229.6263.2164h.858v2.3l-1.6217 3.158c-.1223.2355-.1223.5138 0 .7498l5.1479 9.9988c.0419.092.1035.1742.1802.2417.1001.0899.2207.1558.3519.1916h.4717c.1315-.0358.2522-.1017.3519-.1916.0771-.0675.1382-.1497.1801-.2417l5.148-9.9988c.1223-.236.1223-.5143 0-.7498l-1.6301-3.158zm-8.5372-3.9664l.3607-6.6659h7.773l.4035 6.6659h-8.5372zm1.4931-27.45494c0-1.47729 1.233-2.67507 2.7541-2.67507 1.5212 0 2.7541 1.19778 2.7541 2.67507l1.0382 19.16444h-7.5845l.0943-1.6665h4.7788c.4742 0 .858-.3731.858-.8332 0-.4606-.3838-.8332-.858-.8332h-4.693l.858-15.83154zm5.3281 29.12134v1.6665H42.929v-1.6665h5.1479zm-1.716 12.2988v-5.6329h.858c.4738 0 .858-.3731.858-.8332 0-.4602-.3842-.8332-.858-.8332H43.787c-.4739 0-.858.373-.858.8332 0 .4601.3841.8332.858.8332h.858v5.6329l-3.3289-6.4661 1.2869-2.4997h5.7998l1.287 2.4997-3.3289 6.4661zM29.2013 10.8379c.4738 0 .8579-.3731.8579-.8333 0-.46013-.3841-.83321-.8579-.83321H6.89363c-.47382 0-.85799.37308-.85799.83321v3.333c0 .4601.38417.8332.85799.8332H29.2013c.4738 0 .8579-.3731.8579-.8332 0-.4602-.3841-.8333-.8579-.8333H7.75162v-1.6664H29.2013zM30.0593 18.337c0-.4602-.3842-.8333-.858-.8333H10.3256c-.47384 0-.85801.3731-.85801.8333 0 .4601.38417.8332.85801.8332h18.8757c.4738 0 .858-.3731.858-.8332zM5.17764 22.5031c0 .4602.38417.8332.85799.8332H19.7634c.4738 0 .858-.373.858-.8332 0-.4602-.3842-.8332-.858-.8332H6.03563c-.47382 0-.85799.373-.85799.8332zM24.9114 21.6699c-.4739 0-.858.373-.858.8332 0 .4602.3841.8332.858.8332h3.4319c.4738 0 .858-.373.858-.8332 0-.4602-.3842-.8332-.858-.8332h-3.4319zM17.1894 26.6693c0-.4602-.3841-.8332-.8579-.8332H6.03563c-.47382 0-.85799.373-.85799.8332 0 .4601.38417.8332.85799.8332H16.3315c.4738 0 .8579-.3731.8579-.8332zM16.3315 30.8356c0-.4602-.3842-.8333-.858-.8333H6.03563c-.47382 0-.85799.3731-.85799.8333 0 .4601.38417.8332.85799.8332h9.43787c.4738 0 .858-.3731.858-.8332zM6.03563 34.1685c-.47382 0-.85799.373-.85799.8332 0 .4601.38417.8332.85799.8332h6.00587c.4739 0 .858-.3731.858-.8332 0-.4602-.3841-.8332-.858-.8332H6.03563z"/>
  <path fill="#FFBB01" d="M33.4911.0057373H2.60365C1.18219.0057373.0296936 1.12499.0296936 2.50545V40.8343c0 1.3805 1.1524964 2.4997 2.5739564 2.4997H17.1894c.4738 0 .858-.373.858-.8332 0-.4602-.3842-.8332-.858-.8332H2.60365c-.47382 0-.85798-.3731-.85798-.8333V7.50487H34.3491V40.8343c0 .4602-.3841.8333-.858.8333h-2.5739c-.4738 0-.858.373-.858.8332 0 .4602.3842.8332.858.8332h2.5739c1.4215 0 2.574-1.1192 2.574-2.4997V2.50545c0-1.38046-1.1525-2.4997127-2.574-2.4997127zM1.74567 5.83839V2.50545c0-.46015.38416-.83324.85798-.83324H33.4911c.4739 0 .858.37309.858.83324v3.33294H1.74567z"/>
  <path fill="#FFBB01" d="M24.0533 30.8354c-1.4215 0-2.574 1.1193-2.574 2.4998 0 1.3804 1.1525 2.4997 2.574 2.4997 1.4214 0 2.5739-1.1193 2.5739-2.4997 0-1.3805-1.1525-2.4998-2.5739-2.4998zm0 3.333c-.4739 0-.858-.3731-.858-.8332 0-.4602.3841-.8333.858-.8333.4738 0 .8579.3731.8579.8333 0 .4601-.3841.8332-.8579.8332z"/>
  <path fill="#FFBB01" d="M30.9172 33.3352c-.0013-.926-.5292-1.776-1.3729-2.208.2807-.8853.0343-1.8484-.6397-2.5034-.6745-.6546-1.6661-.8939-2.5778-.6213-.4465-.8169-1.3209-1.3279-2.2735-1.3279-.9527 0-1.827.511-2.2736 1.3279-.9116-.2726-1.9032-.0333-2.5777.6213-.6741.655-.9204 1.6181-.6398 2.5034-.8416.4337-1.3674 1.2828-1.3674 2.208 0 .9252.5258 1.7747 1.3674 2.208-.2806.8832-.0364 1.8446.6347 2.4997.1676.1623.3582.2998.5664.4085v10.7153c.0017.3364.2116.6387.5321.7665.3192.1306.6883.0614.9351-.175l2.8228-2.7495 2.8228 2.7495c.1617.1563.3812.2429.6091.2417.1127.0029.2241-.0199.3259-.0667.3205-.1278.5304-.4301.5321-.7665V38.4595c.2082-.1086.3988-.2462.5664-.4081.6711-.6554.9154-1.6164.6347-2.4997.8463-.4337 1.375-1.2873 1.3729-2.2165zm-6.2548 11.907c-.1609-.1579-.3804-.2466-.6091-.2466-.2288 0-.4483.0887-.6092.2466l-1.9648 1.9162v-8.4153l.3004-.0753c.4466.8174 1.3209 1.328 2.2736 1.328.9526 0 1.827-.5106 2.2735-1.328l.3004.0753v8.4153l-1.9648-1.9162zm3.6808-11.0738h-.1458c-.3494-.0016-.6653.2026-.7981.5167-.1319.3121-.0574.6705.189.9081l.103.1001c.3327.3251.3327.8499 0 1.175-.0946.0964-.2128.168-.3435.2083h-.1286c-.2702.0407-.5442-.046-.7378-.2335l-.103-.1001c-.2455-.2401-.6163-.3125-.938-.1827-.3222.1298-.5312.4361-.5291.7746v.1665c0 .4601-.3842.8332-.858.8332-.4739 0-.858-.3731-.858-.8332v-.1416c.0017-.3393-.2086-.6461-.5321-.7751-.1034-.0399-.2145-.0594-.3259-.0582-.2279-.0012-.4474.0859-.6091.2417l-.1031.1001c-.1935.1875-.4675.2742-.7378.2331h-.1286c-.1307-.0399-.2488-.1115-.3435-.2083-.3326-.3251-.3326-.8499 0-1.175l.1119-.0997c.2463-.238.3209-.5964.1885-.9085-.1328-.3137-.4483-.5183-.7977-.5163h-.1546c-.4738 0-.8579-.3731-.8579-.8332 0-.4606.3841-.8332.8579-.8332h.1458c.3494.0016.6653-.2031.7981-.5167.132-.3121.0574-.6705-.1889-.9086l-.1031-.0996c-.3364-.3247-.3381-.8524-.0042-1.1791.3343-.3267.8777-.3287 1.2141-.0041l.1031.1083c.2446.2392.6141.3116.935.183.3235-.1289.5338-.4353.5321-.7746v-.1668c0-.4602.3841-.8333.858-.8333.4738 0 .858.3731.858.8333v.1416c-.0017.3397.2086.6461.532.775.3209.1282.6904.0562.9351-.1835l.103-.0996c.3339-.3267.8777-.3288 1.2141-.0045.3364.3246.3381.8523.0042 1.179l-.1114.1001c-.2464.2376-.3209.5965-.189.9081.1328.3141.4487.5184.7981.5167h.1458c.4738 0 .858.3731.858.8333 0 .4601-.3842.8332-.858.8332z"/>
</svg>
