<svg xmlns="http://www.w3.org/2000/svg" fill="none" viewBox="0 0 53 50">
  <defs/>
  <path fill="#FFBB01" d="M51.1617 24.1667H31.5372c-.4739 0-.8581.3731-.8581.8333 0 .4602.3842.8334.8581.8334h18.7664v8.3333h-4.2904v-5.8333c0-.4603-.3842-.8334-.8581-.8334s-.8581.3731-.8581.8334v5.8333H21.1287v-8.3333h5.1485c.4739 0 .8581-.3732.8581-.8334 0-.4602-.3842-.8333-.8581-.8333h-6.0066c-.4738 0-.8581.3731-.8581.8333v10c0 .4602.3843.8334.8581.8334h7.7228V37.5h-7.7228c-.4738 0-.8581.3731-.8581.8334v5.8333h-2.5742v-.8333c0-.4603-.3842-.8334-.8581-.8334h-2.5743v-4.1666c0-.4603-.3842-.8334-.858-.8334-.4739 0-.8581.3731-.8581.8334v5c0 .4602.3842.8333.8581.8333h2.5742v1.6667H6.54125v-1.6667h2.57426c.47388 0 .85809-.3731.85809-.8333v-5c0-.4603-.38421-.8334-.85809-.8334-.47387 0-.85809.3731-.85809.8334V42.5H5.68317c-.47388 0-.85809.3731-.85809.8334v.8333H1.39274c-.473876 0-.858087.3731-.858087.8333 0 .4602.384211.8334.858087.8334h3.43234v.8333c0 .4602.38421.8333.85809.8333H15.9802c.4739 0 .8581-.3731.8581-.8333v-.8333h2.5742v2.5c0 .4602.3843.8333.8581.8333h30.8911c.4739 0 .8581-.3731.8581-.8333v-10c0-.4603-.3842-.8334-.8581-.8334h-7.7228v-1.6666h7.7228c.4739 0 .8581-.3732.8581-.8334V25c0-.4602-.3842-.8333-.8581-.8333zM50.3036 47.5H21.1287v-8.3333H44.297V45c0 .4602.3842.8334.8581.8334s.8581-.3732.8581-.8334v-5.8333h4.2904V47.5zm-8.5808-10H29.7096v-1.6666h12.0132V37.5z"/>
  <path fill="#FFBB01" d="M26.2771 27.5c-1.4216 0-2.5743 1.1194-2.5743 2.5 0 1.381 1.1527 2.5 2.5743 2.5s2.5743-1.119 2.5743-2.5c0-1.3806-1.1527-2.5-2.5743-2.5zm0 3.3333c-.4739 0-.8581-.3731-.8581-.8333 0-.4602.3842-.8333.8581-.8333s.8581.3731.8581.8333c0 .4602-.3842.8333-.8581.8333zM31.4258 32.5c.4739 0 .8581-.3731.8581-.8333v-3.3334c0-.4602-.3842-.8333-.8581-.8333-.4738 0-.8581.3731-.8581.8333v3.3334c0 .4602.3843.8333.8581.8333zM35.7162 31.6667v-3.3334c0-.4602-.3842-.8333-.8581-.8333S34 27.8731 34 28.3333v3.3334c0 .4602.3842.8333.8581.8333s.8581-.3731.8581-.8333zM39.1484 31.6667v-3.3334c0-.4602-.3842-.8333-.8581-.8333-.4738 0-.858.3731-.858.8333v3.3334c0 .4602.3842.8333.858.8333.4739 0 .8581-.3731.8581-.8333zM42.5807 31.6667v-3.3334c0-.4602-.3842-.8333-.8581-.8333s-.8581.3731-.8581.8333v3.3334c0 .4602.3842.8333.8581.8333s.8581-.3731.8581-.8333zM27.9933 42.5c-.4739 0-.8581.3732-.8581.8334 0 .4602-.3842.8333-.8581.8333s-.8581-.3731-.8581-.8333c0-.4602.3842-.8334.8581-.8334s.8581-.3731.8581-.8333c0-.4602-.3842-.8333-.8581-.8333-1.4216 0-2.5743 1.1194-2.5743 2.5 0 1.381 1.1527 2.5 2.5743 2.5s2.5743-1.119 2.5743-2.5c0-.4602-.3843-.8334-.8581-.8334zM31.4258 40.8334c-.4738 0-.8581.3731-.8581.8333V45c0 .4602.3843.8334.8581.8334.4739 0 .8581-.3732.8581-.8334v-3.3333c0-.4602-.3842-.8333-.8581-.8333zM34.8581 40.8334c-.4739 0-.8581.3731-.8581.8333V45c0 .4602.3842.8334.8581.8334s.8581-.3732.8581-.8334v-3.3333c0-.4602-.3842-.8333-.8581-.8333zM38.2903 40.8334c-.4738 0-.858.3731-.858.8333V45c0 .4602.3842.8334.858.8334.4739 0 .8581-.3732.8581-.8334v-3.3333c0-.4602-.3842-.8333-.8581-.8333zM41.7226 40.8334c-.4739 0-.8581.3731-.8581.8333V45c0 .4602.3842.8334.8581.8334s.8581-.3732.8581-.8334v-3.3333c0-.4602-.3842-.8333-.8581-.8333zM7.03873 29.8418c.11355.0488.23631.074.36033.0749.39762-.0057.73867-.2763.82457-.6531.08547-.3772-.10643-.7617-.46424-.9302-4.03359-1.7952-6.23537-6.0762-5.28972-10.2864.94524-4.2102 4.78274-7.2124 9.21983-7.2136.8706-.0004 1.7371.1172 2.5742.3499.4274.1201.8778-.0972 1.0383-.4996 2.1595-5.43948 7.5464-9.02428 13.5492-9.01695 6.837.03255 12.7448 4.64681 14.2443 11.12505.0767.3341.3557.5884.7035.6417 3.7449.5811 6.5014 3.7171 6.5043 7.3999-.0037.2425-.0209.4846-.0515.7251-.0314.2238.0323.4509.176.6283.1441.1774.3561.2905.5878.3133.2292.0232.4584-.044.6356-.1868.1777-.1424.2887-.3483.3084-.5713.0377-.3015.0578-.6046.0599-.9086.0176-4.2969-3.0573-8.0224-7.3796-8.9416C42.7557 4.91382 36.2794.0358877 28.8512.00008038 22.4055-.0198577 16.5602 3.67073 13.9633 9.40031c-.747-.15585-1.5096-.23438-2.2738-.23356C6.45047 9.17204 1.92122 12.7174.802943 17.6881-.314914 22.6588 2.27904 27.7153 7.03873 29.8418z"/>
  <path fill="#FFBB01" d="M14.264 30.5087c.0708.0118.1437.0118.2145 0 .9784-.2417 1.9169-.6149 2.7888-1.1084.1974-.1115.3407-.2946.3985-.5087.0578-.2144.0255-.4419-.0897-.6331-.2384-.3939-.7588-.5278-1.1669-.2999-.7391.4159-1.533.7328-2.3597.9416-.4739.0573-.8099.4773-.7508.9375.059.4602.4914.7865.9653.7291v-.0581z"/>
  <path fill="#FFBB01" d="M10.8318 35.8334c.4739 0 .8581-.3732.8581-.8334V21.9169l1.862 2.7084c.1579.2327.4252.3735.7122.3747.1689.0021.334-.0476.4718-.1416.3918-.2543.499-.7674.2405-1.1499l-3.4323-5-.0432-.0419c-.1625-.1969-.4089-.3117-.6691-.3117-.2602 0-.5065.1148-.6691.3117l-.0432.0419-3.43231 5c-.2095.3792-.08715.8508.2824 1.0885.36912.2376.86395.1631 1.14215-.1717l1.86198-2.7084V35c0 .4602.38418.8334.85808.8334zM32.7555 15.1417c-.3934-.2511-.9221-.1469-1.184.2335l-1.862 2.7084V8.33339c0-.4602-.3842-.83333-.8581-.83333-.4738 0-.8581.37313-.8581.83333v9.75021l-1.8619-2.7084c-.1542-.2787-.4571-.4488-.7827-.439-.3255.0097-.6172.1973-.7533.4846-.1358.2873-.0926.6246.1114.8712l3.4324 5c.1596.2303.4265.3682.7122.3682.2858 0 .5527-.1379.7123-.3682l3.4323-5c.2586-.3825.1513-.896-.2405-1.1503z"/>
</svg>
