<svg xmlns="http://www.w3.org/2000/svg" fill="none" viewBox="0 0 18 16">
  <defs/>
  <path fill="#fff" d="M17.2648 2.86704c-1.0827.05009-1.0591.046-1.1815.05628l.6412-1.83806s-2.0016.73905-2.509.87125C12.8829.754288 10.902.701169 9.48586 1.57479c-1.1597.71559-1.78216 1.94444-1.57454 3.38075-2.25702-.31436-4.15868-1.3882-5.66007-3.19846l-.47486-.57244-.35483.65403c-.44846.82644-.597378 1.77138-.41944 2.66069.07302.36484.19712.71282.36901 1.03865l-.407353-.15844-.048327.68316c-.048982.69397.18122 1.50407.6159 2.1668.12239.18664.27997.3916.47971.5938l-.21051-.03243.25687.78281c.33763 1.02849 1.03888 1.82419 1.94894 2.26659-.90888.3871-1.64309.6341-2.84994 1.0326l-1.1041434.3643 1.0198434.5596c.38884.2134 1.76285.9261 3.12045 1.1399 3.01776.4751 6.41543.0882 8.70283-1.9795 1.9266-1.7416 2.5587-4.21889 2.4274-6.79693-.0198-.39028.0867-.76277.3-1.04866.4271-.57245 1.6394-2.24075 1.642-2.24457zm-2.4485 1.63825c-.3542.47464-.5316 1.08083-.4998 1.70665.1325 2.60045-.5724 4.61716-2.0954 5.99376-1.779 1.6082-4.64846 2.2394-7.87239 1.7318-.58385-.0919-1.18727-.2976-1.68669-.5031 1.01183-.3494 1.79319-.6609 3.05506-1.2604l1.76154-.8368-1.94487-.125c-.93159-.0598-1.7073-.513-2.18413-1.24873.25319-.01476.49731-.05589.74039-.1239l1.85491-.51853-1.87041-.45975c-.90887-.22342-1.42693-.76924-1.70153-1.18786-.1803-.27508-.2981-.55689-.36875-.81668.18753.05048.40618.08646.75878.12152l1.7312.17188-1.37165-1.07397c-.98832-.77372-1.38438-1.93613-1.09403-3.0536C5.113 6.23369 8.73457 5.99235 9.09912 6.07723c-.08024-.78228-.08234-.78412-.10335-.8586-.46685-1.65643.55628-2.4975 1.01773-2.78221.9639-.59458 2.4939-.68421 3.5537.29539.2289.21142.5384.29459.8281.22236.26-.06485.4734-.13352.6823-.20826l-.4349 1.24664.5552.0004c-.1048.14103-.2304.30988-.3816.51234z"/>
</svg>
